<?xml version="1.0" encoding="UTF-8" standalone="no"?>
<svg
   xmlns:dc="http://purl.org/dc/elements/1.1/"
   xmlns:cc="http://creativecommons.org/ns#"
   xmlns:rdf="http://www.w3.org/1999/02/22-rdf-syntax-ns#"
   xmlns:svg="http://www.w3.org/2000/svg"
   xmlns="http://www.w3.org/2000/svg"
   xmlns:sodipodi="http://sodipodi.sourceforge.net/DTD/sodipodi-0.dtd"
   xmlns:inkscape="http://www.inkscape.org/namespaces/inkscape"
   inkscape:version="1.0 (4035a4fb49, 2020-05-01)"
   sodipodi:docname="NodeM.svg"
   id="svg26"
   version="1.1"
   viewBox="0 0 2249 2249"
   enable-background="new 0 0 2249 2249">
  <metadata
     id="metadata32">
    <rdf:RDF>
      <cc:Work
         rdf:about="">
        <dc:format>image/svg+xml</dc:format>
        <dc:type
           rdf:resource="http://purl.org/dc/dcmitype/StillImage" />
      </cc:Work>
    </rdf:RDF>
  </metadata>
  <defs
     id="defs30" />
  <sodipodi:namedview
     inkscape:current-layer="svg26"
     inkscape:window-maximized="1"
     inkscape:window-y="-8"
     inkscape:window-x="1912"
     inkscape:cy="1284.2446"
     inkscape:cx="1075.2311"
     inkscape:zoom="0.27950997"
     showgrid="false"
     id="namedview28"
     inkscape:window-height="1055"
     inkscape:window-width="1920"
     inkscape:pageshadow="2"
     inkscape:pageopacity="0"
     guidetolerance="10"
     gridtolerance="10"
     objecttolerance="10"
     borderopacity="1"
     bordercolor="#666666"
     pagecolor="#ffffff" />
  <path
     id="path2"
     fill="#f2f2f2"
     d="m2249 1124.5c0 621-503.5 1124.5-1124.5 1124.5-573 0-1045.9-428.5-1115.6-982.6-5.9-47.1-8.9-94.5-8.9-141.9 0-88 10.1-173.7 29.2-255.9 115.9-497.7 562.3-868.6 1095.3-868.6 531.7 0 977.2 369 1094.3 864.9 15.6 65.8 25.1 132.9 28.6 200.5 1.1 19.7 1.6 39.4 1.6 59.1z" />
  <path
     style="fill:#939393;fill-opacity:1"
     id="path4"
     fill="#3b8739"
     d="m1068.3 1214.8v-292.4l-253.2-146.1-253.2 146.1v292.4l253.2 146.2z" />
  <path
     style="fill:#595959;fill-opacity:1"
     id="path6"
     fill="#333"
     d="m2065.4 1170.4 165 95.3-165 95.3-253.2-146.2v-292.3l253.2-146.2 153.4 88.6c15.6 65.8 25.1 132.9 28.6 200.5l-93.8 54.2v-101.8l-88.2-50.9-88.2 50.9v101.8z" />
  <path
     style="fill:#939393;fill-opacity:1"
     id="path8"
     fill="#66a060"
     d="m2114.6 1097v-56.8l-49.1-28.4-49.2 28.4v56.8l49.2 28.4z" />
  <path
     style="fill:#595959;fill-opacity:1"
     id="path10"
     fill="#333"
     d="m442.3 922.5v385.5l-168.9-96.3v-197.7l-84.3-48.7-84.3 48.7v197.6l-95.9 54.7c-5.9-47-8.9-94.4-8.9-141.8 0-88 10.1-173.7 29.2-255.9l159.9-92.3z" />
  <path
     style="fill:#dcdcdc;fill-opacity:0.69117647"
     id="path12"
     fill="#6da75d"
     d="m815 776.2 253.2 438.5-253.2 146.2-253.1-438.5z" />
  <path
     style="fill:#74787d;fill-opacity:1"
     id="path14"
     fill="#55a344"
     d="m561.9 1214.8 86.9-141.8-86.9-150.6z" />
  <path
     style="fill:#74787d;fill-opacity:1"
     id="path16"
     fill="#639d57"
     d="m983.8 1068.6 84.4-146.2-253.1-146.1z" />
  <path
     style="fill:#585858;fill-opacity:1"
     id="path18"
     fill="#333"
     d="m1522.3 437.4v387.9l-84.9-49-253.2 146.2v292.4l253.2 146.2 253.2-146.2v-687.4zm-.5 679.9-84.4 48.7-84.4-48.7v-97.4l84.4-48.7 84.4 48.7z" />
  <g
     style="fill:#595959;fill-opacity:1"
     transform="translate(0,3.5776899)"
     id="g24"
     fill="#66a060">
    <path
       style="fill:#595959;fill-opacity:1"
       id="path20"
       d="m 1239.4,1575.7 c 0,0 -5,-42.7 -50.7,-42.7 -45.7,0 -77,6 -77,31.3 0,25.3 88.9,25.3 122.7,35.3 33.8,9.9 63.6,35.8 48.7,81.5 -14.9,45.7 -60.6,50.7 -131.2,50.7 -70.6,0 -86.5,-58.6 -86.5,-81.5 h 39.8 c 0,0 -5,35.8 41.7,41.7 46.7,5.9 91.4,9.3 97.4,-26.8 8,-47.7 -151.1,-23.9 -165,-70.6 -11.8,-39.5 -5,-91.4 74.5,-99.4 79.5,-8 123.2,27.2 123.2,79.5 z" />
    <path
       style="fill:#595959;fill-opacity:1"
       id="path22"
       d="m 855.3,1762 87.9,50.7 c 44.2,25.5 99.4,-6.4 99.4,-57.4 v -252.6 h -35.8 v 242.6 c 0,27.8 -30.1,45.3 -54.3,31.3 l -61.3,-35.4 v -258.9 l 224.2,-129.4 224.2,129.4 v 258.9 l -224.2,129.4 -64.6,-37.3 -42.2,17 106.8,61.6 260,-150.1 v -300.2 l -260,-150.1 -260,150.1 z" />
  </g>
</svg>
