<?xml version="1.0" encoding="UTF-8" standalone="no"?>
<svg
   xmlns:dc="http://purl.org/dc/elements/1.1/"
   xmlns:cc="http://creativecommons.org/ns#"
   xmlns:rdf="http://www.w3.org/1999/02/22-rdf-syntax-ns#"
   xmlns:svg="http://www.w3.org/2000/svg"
   xmlns="http://www.w3.org/2000/svg"
   xmlns:sodipodi="http://sodipodi.sourceforge.net/DTD/sodipodi-0.dtd"
   xmlns:inkscape="http://www.inkscape.org/namespaces/inkscape"
   inkscape:version="1.0 (4035a4fb49, 2020-05-01)"
   sodipodi:docname="PythonM.svg"
   id="svg18"
   version="1.1"
   preserveAspectRatio="xMinYMin meet"
   viewBox="0 0 256 255"
   height="2490"
   width="2500">
  <metadata
     id="metadata22">
    <rdf:RDF>
      <cc:Work
         rdf:about="">
        <dc:format>image/svg+xml</dc:format>
        <dc:type
           rdf:resource="http://purl.org/dc/dcmitype/StillImage" />
      </cc:Work>
    </rdf:RDF>
  </metadata>
  <sodipodi:namedview
     inkscape:current-layer="svg18"
     inkscape:window-maximized="1"
     inkscape:window-y="-8"
     inkscape:window-x="1912"
     inkscape:cy="1267.6568"
     inkscape:cx="765.74927"
     inkscape:zoom="0.17851406"
     showgrid="false"
     id="namedview20"
     inkscape:window-height="1055"
     inkscape:window-width="1920"
     inkscape:pageshadow="2"
     inkscape:pageopacity="0"
     guidetolerance="10"
     gridtolerance="10"
     objecttolerance="10"
     borderopacity="1"
     bordercolor="#666666"
     pagecolor="#ffffff" />
  <defs
     id="defs12">
    <linearGradient
       id="a"
       y2="78.201%"
       x2="79.639%"
       y1="12.039%"
       x1="12.959%">
      <stop
         id="stop2"
         offset="0%"
         stop-color="#387EB8" />
      <stop
         id="stop4"
         offset="100%"
         stop-color="#366994" />
    </linearGradient>
    <linearGradient
       id="b"
       y2="88.429%"
       x2="90.742%"
       y1="20.579%"
       x1="19.128%">
      <stop
         id="stop7"
         offset="0%"
         stop-color="#FFE052" />
      <stop
         id="stop9"
         offset="100%"
         stop-color="#FFC331" />
    </linearGradient>
  </defs>
  <path
     style="fill:#939393;fill-opacity:1"
     id="path14"
     fill="url(#a)"
     d="M126.916.072c-64.832 0-60.784 28.115-60.784 28.115l.072 29.128h61.868v8.745H41.631S.145 61.355.145 126.77c0 65.417 36.21 63.097 36.21 63.097h21.61v-30.356s-1.165-36.21 35.632-36.21h61.362s34.475.557 34.475-33.319V33.97S194.67.072 126.916.072zM92.802 19.66a11.12 11.12 0 0 1 11.13 11.13 11.12 11.12 0 0 1-11.13 11.13 11.12 11.12 0 0 1-11.13-11.13 11.12 11.12 0 0 1 11.13-11.13z" />
  <path
     style="fill:#dcdcdc;fill-opacity:1"
     id="path16"
     fill="url(#b)"
     d="M128.757 254.126c64.832 0 60.784-28.115 60.784-28.115l-.072-29.127H127.6v-8.745h86.441s41.486 4.705 41.486-60.712c0-65.416-36.21-63.096-36.21-63.096h-21.61v30.355s1.165 36.21-35.632 36.21h-61.362s-34.475-.557-34.475 33.32v56.013s-5.235 33.897 62.518 33.897zm34.114-19.586a11.12 11.12 0 0 1-11.13-11.13 11.12 11.12 0 0 1 11.13-11.131 11.12 11.12 0 0 1 11.13 11.13 11.12 11.12 0 0 1-11.13 11.13z" />
</svg>
