<?xml version="1.0" encoding="UTF-8" standalone="no"?>
<svg
   xmlns:dc="http://purl.org/dc/elements/1.1/"
   xmlns:cc="http://creativecommons.org/ns#"
   xmlns:rdf="http://www.w3.org/1999/02/22-rdf-syntax-ns#"
   xmlns:svg="http://www.w3.org/2000/svg"
   xmlns="http://www.w3.org/2000/svg"
   xmlns:sodipodi="http://sodipodi.sourceforge.net/DTD/sodipodi-0.dtd"
   xmlns:inkscape="http://www.inkscape.org/namespaces/inkscape"
   sodipodi:docname="Html.svg"
   inkscape:version="1.0 (4035a4fb49, 2020-05-01)"
   id="svg8"
   version="1.1"
   viewBox="0 0 28.284801 28.071228"
   height="28.071228mm"
   width="28.284801mm">
  <defs
     id="defs2" />
  <sodipodi:namedview
     inkscape:window-maximized="1"
     inkscape:window-y="-8"
     inkscape:window-x="1912"
     inkscape:window-height="1055"
     inkscape:window-width="1920"
     showgrid="false"
     inkscape:document-rotation="0"
     inkscape:current-layer="layer1"
     inkscape:document-units="mm"
     inkscape:cy="123.77084"
     inkscape:cx="66.480198"
     inkscape:zoom="1.979899"
     inkscape:pageshadow="2"
     inkscape:pageopacity="0.0"
     borderopacity="1.0"
     bordercolor="#666666"
     pagecolor="#ffffff"
     id="base" />
  <metadata
     id="metadata5">
    <rdf:RDF>
      <cc:Work
         rdf:about="">
        <dc:format>image/svg+xml</dc:format>
        <dc:type
           rdf:resource="http://purl.org/dc/dcmitype/StillImage" />
        <dc:title></dc:title>
      </cc:Work>
    </rdf:RDF>
  </metadata>
  <g
     transform="translate(-96.028295,-27.6238)"
     id="layer1"
     inkscape:groupmode="layer"
     inkscape:label="Capa 1">
    <path
       id="path883"
       d="m 108.04671,55.622966 c -0.3638,-0.06853 -0.89959,-0.226113 -1.19063,-0.350187 -0.29104,-0.124076 -1.11,-0.432464 -1.8199,-0.685308 -1.9148,-0.681986 -4.36729,-2.471564 -5.771551,-4.211488 -0.6828,-0.846011 -1.55991,-2.326571 -1.949132,-3.290131 -0.38922,-0.963561 -0.83989,-2.032788 -1.00149,-2.37606 -0.38365,-0.814958 -0.37989,-5.356235 0.005,-6.160071 0.1644,-0.343272 0.56762,-1.321415 0.89604,-2.173651 0.792672,-2.056957 2.470652,-4.286145 4.235783,-5.627209 1.72978,-1.314211 2.04236,-1.480496 4.5245,-2.406903 1.56123,-0.582699 2.37712,-0.72259 4.18794,-0.718052 1.61873,0.0041 2.73089,0.170256 3.96875,0.593081 2.06294,0.704657 3.9712,1.776536 5.47114,3.073164 1.34995,1.166968 3.05518,3.669573 3.66075,5.372547 0.247,0.694591 0.58532,1.548959 0.75183,1.898597 0.41496,0.871344 0.38819,5.734674 -0.0339,6.156753 -0.17866,0.178658 -0.32483,0.523149 -0.32483,0.765535 0,0.242386 -0.43541,1.311029 -0.96757,2.374763 -1.28323,2.565025 -3.60027,4.882068 -6.1653,6.165298 -1.06373,0.532165 -2.13238,0.967571 -2.37476,0.967571 -0.24239,0 -0.5642,0.123489 -0.71513,0.274423 -0.29604,0.296042 -4.30238,0.561756 -5.38766,0.357328 z m 5.79827,-4.988542 c 3.04564,-0.845989 3.69118,-1.167575 3.73557,-1.860917 0.009,-0.145521 0.34032,-3.920474 0.73556,-8.388785 0.39525,-4.46831 0.67719,-8.248545 0.62653,-8.400521 -0.0615,-0.184551 -2.97511,-0.27632 -8.77301,-0.27632 -9.30331,0 -9.07002,-0.03536 -8.83951,1.339687 0.0594,0.354578 0.40004,4.046714 0.75688,8.204746 0.35684,4.158031 0.7249,7.758379 0.81792,8.000773 0.093,0.242394 0.60336,0.561273 1.1341,0.70862 0.53074,0.147347 1.97701,0.556867 3.21394,0.910046 1.23693,0.353179 2.48708,0.649553 2.77812,0.658609 0.29105,0.0091 2.0073,-0.394115 3.8139,-0.895938 z m -6.17438,-3.827236 c -1.7038,-0.487797 -1.95558,-0.80241 -1.98655,-2.482216 l -0.0186,-1.008951 0.8495,0.08291 c 0.6547,0.0639 0.88484,0.234102 1.00362,0.742251 0.22725,0.972235 1.19658,1.371609 2.98541,1.230029 0.84219,-0.06666 1.68995,-0.252906 1.88392,-0.41389 0.3851,-0.319603 0.72857,-2.247025 0.50448,-2.83098 -0.10903,-0.284132 -0.9161,-0.364293 -3.66774,-0.364293 -1.94038,0 -3.58473,-0.09186 -3.65412,-0.204133 -0.0694,-0.112273 -0.21172,-1.481492 -0.3163,-3.042708 l -0.19014,-2.838576 h 5.06319 5.06319 v 0.79375 0.79375 l -3.77031,0.0041 c -2.07368,0.0022 -3.92738,0.103644 -4.11936,0.225369 -0.2187,0.138675 -0.3175,0.606447 -0.26458,1.252719 l 0.0845,1.031403 3.74931,0.132292 c 2.06212,0.07276 3.83122,0.214681 3.93136,0.315381 0.19549,0.196611 -0.2745,5.728103 -0.5064,5.960003 -0.26436,0.26436 -3.72547,1.132844 -4.39042,1.101672 -0.36695,-0.0172 -1.37221,-0.233127 -2.23391,-0.479833 z"
       style="fill:#a2a1a1;fill-opacity:1;stroke-width:0.264583" />
    <path
       d=""
       id="path871"
       style="fill:#000000;stroke-width:0.264583" />
    <path
       d=""
       id="path849"
       style="fill:#000000;stroke-width:0.264583" />
    <path
       d=""
       id="path847"
       style="fill:#000000;stroke-width:0.264583" />
  </g>
</svg>
