<?xml version="1.0" encoding="UTF-8" standalone="no"?>
<svg
   xmlns:dc="http://purl.org/dc/elements/1.1/"
   xmlns:cc="http://creativecommons.org/ns#"
   xmlns:rdf="http://www.w3.org/1999/02/22-rdf-syntax-ns#"
   xmlns:svg="http://www.w3.org/2000/svg"
   xmlns="http://www.w3.org/2000/svg"
   xmlns:sodipodi="http://sodipodi.sourceforge.net/DTD/sodipodi-0.dtd"
   xmlns:inkscape="http://www.inkscape.org/namespaces/inkscape"
   sodipodi:docname="ml.svg"
   inkscape:version="1.0 (4035a4fb49, 2020-05-01)"
   id="svg8"
   version="1.1"
   viewBox="0 0 200.00018 200.0002"
   height="200.0002mm"
   width="200.00018mm">
  <defs
     id="defs2" />
  <sodipodi:namedview
     inkscape:window-maximized="1"
     inkscape:window-y="-8"
     inkscape:window-x="-8"
     inkscape:window-height="1055"
     inkscape:window-width="1920"
     showgrid="false"
     inkscape:document-rotation="0"
     inkscape:current-layer="layer1"
     inkscape:document-units="mm"
     inkscape:cy="447.79189"
     inkscape:cx="-29.073777"
     inkscape:zoom="0.35"
     inkscape:pageshadow="2"
     inkscape:pageopacity="0.0"
     borderopacity="1.0"
     bordercolor="#666666"
     pagecolor="#ffffff"
     id="base" />
  <metadata
     id="metadata5">
    <rdf:RDF>
      <cc:Work
         rdf:about="">
        <dc:format>image/svg+xml</dc:format>
        <dc:type
           rdf:resource="http://purl.org/dc/dcmitype/StillImage" />
        <dc:title></dc:title>
      </cc:Work>
    </rdf:RDF>
  </metadata>
  <g
     transform="translate(136.04025,15.769069)"
     id="layer1"
     inkscape:groupmode="layer"
     inkscape:label="Capa 1">
    <path
       d=""
       id="path1237"
       style="fill:#000000;stroke-width:0.264583" />
    <path
       d=""
       id="path1235"
       style="fill:#000000;stroke-width:0.264583" />
    <path
       d="M -36.108887,-15.769063 A 100,100 0 0 0 -136.04025,84.231035 100,100 0 0 0 -36.040156,184.23113 100,100 0 0 0 63.959939,84.231035 100,100 0 0 0 -36.040156,-15.769063 a 100,100 0 0 0 -0.06873,0 z M -103.77349,16.497701 H 31.693176 V 151.96437 H -103.77349 Z"
       style="fill:#939393;stroke:#000000;stroke-width:0;stroke-linecap:square;stroke-linejoin:round;paint-order:stroke markers fill"
       id="path1261" />
    <path
       id="path1245"
       d="M -103.54016,84.231046 V 16.731031 h 67.499956 67.500048 v 67.500015 67.499984 h -67.500048 -67.499956 z m 13.575282,66.565444 1.144742,-0.67086 1.022166,-1.10893 1.022071,-1.10891 0.62474,-1.29074 0.62484,-1.29072 0.123771,-1.9282 0.123674,-1.9282 -0.444066,-1.35761 -0.444066,-1.35765 4.069832,-4.14016 4.069827,-4.14019 0.186755,-1.10503 c 0.102645,-0.60776 0.205888,-1.10351 0.229407,-1.10165 0.02391,0.002 0.810696,0.2441 1.749252,0.53827 l 1.706502,0.53485 2.452221,0.16108 2.452326,0.16108 0.850958,1.60634 0.850957,1.60633 1.713876,1.73076 1.713875,1.73074 1.465833,0.81538 c 0.806213,0.44845 2.230578,1.05158 3.165347,1.34029 l 1.699425,0.52491 1.976268,0.18081 1.976367,0.18084 2.109309,-0.4336 2.109407,-0.43357 1.977564,-0.96504 1.977564,-0.96504 1.884983,-1.87837 1.885083,-1.87837 1.057446,-2.21463 1.057543,-2.21462 0.287407,-1.39726 0.287406,-1.39725 v -9.21552 -9.21556 h 8.71856 8.718456 l 0.576008,-0.29219 c 0.824849,-0.4185 7.263092,-6.82128 7.713236,-7.670781 l 0.377295,-0.712012 V 84.226802 69.958086 L -13.3929,69.382167 c -0.418454,-0.824859 -6.821319,-7.263133 -7.670783,-7.713289 l -0.712039,-0.377295 h -2.649739 -2.64984 v -8.767081 -8.767105 l 0.369423,-1.387962 c 0.203298,-0.763382 0.669884,-1.90051 1.037015,-2.526945 l 0.667492,-1.138963 1.103486,-0.996993 1.103585,-0.996994 1.481877,-0.694819 1.481777,-0.694818 h 2.373097 2.372997 l 1.496426,0.701466 1.496328,0.701475 1.20633,1.111916 1.2062306,1.111906 0.7947526,1.6144 0.7947525,1.614399 0.1633354,1.748476 0.1632356,1.748477 -0.1711084,0.912205 -0.1711086,0.912217 -1.3802285,-0.47684 -1.3801292,-0.476832 -1.506294,-0.009 -1.506193,-0.009 -1.51267,0.565964 -1.512671,0.565964 -1.254662,1.173633 -1.254764,1.173652 -0.534451,1.104084 c -0.293984,0.607252 -0.656431,1.74712 -0.805515,2.533055 l -0.270965,1.42897 0.263689,1.426637 0.263789,1.426629 0.586173,1.173781 0.586173,1.173782 1.150624,1.060584 1.150621,1.060574 1.232839,0.56719 1.232838,0.567199 2.241152,0.003 2.241253,0.003 1.5313063,-0.775926 1.5314058,-0.775918 0.896202,-0.991981 c 0.4928959,-0.545594 1.1678626,-1.50161 1.499815,-2.124477 l 0.603713,-1.132484 0.036873,-2.636715 0.036873,-2.636715 0.8026254,-1.675786 c 0.4413742,-0.921695 0.8818515,-2.145255 0.9788163,-2.71903 l 0.1762905,-1.043256 0.6503518,-0.247275 c 0.85504433,-0.325077 2.6134655,-0.312061 3.8394274,0.0284 l 0.9821049,0.272757 1.1159422,0.851196 1.1160418,0.851198 0.7363545,1.409578 0.7363543,1.409567 v 1.631989 1.631978 l -0.6581254,1.320976 -0.6582245,1.320824 -0.8579341,0.413342 c -0.4718688,0.227344 -1.442613,0.930791 -2.1573422,1.563225 l -1.2993082,1.149874 -0.97752084,1.512364 -0.97752067,1.512349 -0.47176909,1.575059 -0.471769,1.575064 -0.7466191,0.309271 c -0.4106802,0.170092 -1.2082232,0.770855 -1.7724725,1.335015 l -1.0257539,1.025763 -0.6013212,1.248693 -0.601421,1.248706 v 1.845699 1.84571 l 0.5916546,1.318352 0.5916547,1.318363 0.8433844,0.880477 0.8434841,0.880475 1.2351302,0.631299 1.23503045,0.631297 1.42447565,0.167412 1.424376,0.167411 L 3.5555108,81.2362 5.0031065,80.815355 6.211828,79.892474 7.4204498,78.969605 8.2349342,77.33958 9.0495177,75.709554 V 74.084732 72.459948 L 8.6152198,71.185214 8.1809208,69.910589 6.9672167,68.670994 C 6.2997242,67.989221 5.5335727,67.313836 5.2647022,67.170152 L 4.7757924,66.908895 5.189263,66.109428 c 0.2273141,-0.4397 0.7297772,-1.175466 1.1164404,-1.635046 l 0.7031693,-0.835583 1.3499332,-0.703777 1.3499327,-0.703767 1.8456194,-5.28e-4 1.845719,-5.29e-4 1.085447,0.57282 c 0.596938,0.315062 1.451085,0.880588 1.898139,1.256716 l 0.81269,0.683887 0.738647,1.504011 0.738547,1.50401 V 80.93524 94.118826 l -0.738547,1.504012 -0.738647,1.504011 -0.81269,0.683885 c -0.447054,0.37614 -1.301201,0.941666 -1.898139,1.25672 l -1.085447,0.572825 -1.845719,0.003 -1.8456194,0.003 L 8.9382029,99.255615 8.1676667,98.864931 8.1467392,96.096381 8.1258117,93.327821 7.3442136,91.785423 6.5627143,90.243014 5.2880209,89.096957 4.0133275,87.950898 2.5660308,87.40938 1.1187341,86.867862 H -0.70725354 -2.5331413 l -1.5240315,0.57023 -1.5241311,0.570219 -1.4751007,1.47518 -1.4752001,1.47517 -0.5702288,1.524062 -0.5702287,1.524062 v 1.825917 1.825919 l 0.563751,1.526007 0.5637512,1.526002 1.4796848,1.47973 1.4796847,1.47971 1.5260245,0.56374 1.5260247,0.56375 1.90172561,-0.006 1.90172579,-0.006 1.5274196,-0.62806 1.5273202,-0.62807 1.109365,0.6049 c 0.6100908,0.33269 1.5523335,0.74534 2.0936621,0.917 l 0.9843969,0.31208 0.8350135,1.74963 0.8350126,1.74964 0.126263,2.41266 0.126165,2.41263 -0.5906582,1.77505 -0.5907573,1.77502 -1.2230721,1.60568 -1.2230719,1.60567 -1.4501867,1.00591 -1.4501867,1.00592 -1.6757072,0.52878 -1.675707,0.52878 -1.7520432,-0.003 -1.7519435,-0.003 -1.2128074,-0.36807 c -1.6939441,-0.51417 -3.6882497,-1.56674 -4.3854395,-2.31463 l -0.5884658,-0.63124 0.5500985,-1.43832 0.5500982,-1.43831 -0.1203838,-1.71387 -0.1203839,-1.71386 -0.6735713,-1.31836 -0.6736713,-1.31836 -0.7496089,-0.70147 c -0.412375,-0.38583 -1.283664,-0.97768 -1.936208,-1.31521 l -1.186597,-0.61371 -1.892956,-0.0969 -1.892956,-0.0969 -1.402951,0.64492 c -0.771532,0.3547 -1.782437,0.96595 -2.246334,1.35832 l -0.843484,0.71344 -0.68852,1.40729 -0.68852,1.40729 -0.148087,1.43484 -0.148088,1.43486 0.426227,1.4663 0.426326,1.46631 1.18012,1.31259 1.18012,1.31258 1.390294,0.59811 1.390294,0.59809 1.498519,0.0585 1.49842,0.0586 1.509282,1.34515 1.509183,1.34515 1.388301,0.72685 1.3883016,0.72685 -0.3477978,0.67258 c -0.1913385,0.36991 -1.0070198,1.29602 -1.8127348,2.05802 l -1.464935,1.38545 -1.263134,0.57783 -1.263232,0.57784 -2.504841,0.0107 -2.50494,0.0108 -1.521342,-0.71292 -1.52134,-0.71292 -1.283264,-1.31746 -1.283264,-1.31749 -0.577404,-1.19266 -0.577304,-1.19264 -0.371117,-2.12571 c -0.204094,-1.16915 -0.501168,-2.36885 -0.660217,-2.66599 l -0.289202,-0.54027 -0.94423,-0.39452 -0.944235,-0.39454 -0.864313,0.16215 -0.864312,0.16215 -0.675067,0.80228 -0.675066,0.80229 -0.03288,0.57303 c -0.01794,0.31517 -0.01,1.22561 0.02691,2.02322 l 0.0598,1.45019 0.626235,1.97755 0.626334,1.97753 1.075782,1.63954 1.075681,1.63952 1.577441,1.42749 1.577448,1.4275 1.505595,0.79876 c 0.828037,0.4393 2.217434,1.01121 3.087526,1.27094 l 1.582031,0.47219 2.636784,-0.007 2.636685,-0.007 1.57077,-0.46464 c 2.018422,-0.59705 3.880387,-1.53343 5.5931658,-2.81285 l 1.3631877,-1.01823 1.1702542,-1.52349 c 0.643675,-0.83792 1.4174001,-2.00942 1.7195557,-2.60332 l 0.5492014,-1.07983 2.46178951,-0.1617 2.46178959,-0.16171 1.7065007,-0.53487 c 0.9385555,-0.29416 1.7257341,-0.53637 1.7492528,-0.53824 0.023917,-0.002 0.1267619,0.49386 0.229407,1.10163 l 0.1867544,1.10505 4.0698302,4.14018 4.06983,4.14016 -0.444065,1.35764 -0.444065,1.35763 0.123673,1.9282 0.123772,1.92818 0.62484,1.29074 0.624739,1.29073 1.022068,1.10892 1.022166,1.10891 1.144743,0.67087 1.144743,0.67087 h 3.481464 3.481565 l 0.953901,-0.56875 c 1.373551,-0.81889 2.624528,-2.02652 3.493125,-3.37203 l 0.756784,-1.17223 -0.0309,-1.72816 -0.0309,-1.72817 -0.203995,1.20456 -0.203894,1.20456 -0.667394,1.31705 -0.667393,1.31706 -1.109464,1.00232 -1.109465,1.00232 -1.442812,0.66055 -1.442912,0.66054 -2.151562,-0.11291 -2.151661,-0.11295 -1.395177,-0.75933 -1.395077,-0.7593 -0.939054,-1.03938 -0.938953,-1.03937 -0.65424,-1.42892 -0.654138,-1.4289 -0.01,-1.76681 -0.01,-1.76678 0.429414,-1.02097 c 0.236186,-0.56151 0.429417,-1.20958 0.429417,-1.44013 v -0.41918 l -4.218717,-4.24686 -4.2187141,-4.24686 v -1.10254 -1.10254 H 5.9233247 c -0.267276,0 -1.186897,0.24738 -2.0434359,0.54971 l -1.5574159,0.54973 -2.84984826,0.14753 -2.84994774,0.14753 -0.7582786,1.50216 -0.7582787,1.50215 -1.1518182,1.34942 c -2.9015692,3.39921 -7.0258124,5.3324 -11.3542484,5.32209 l -1.634949,-0.004 -1.646607,-0.38821 -1.64651,-0.38824 -1.781241,-0.86031 -1.781143,-0.86031 -1.885083,-1.87227 -1.884979,-1.8723 -1.066612,-2.21462 -1.066513,-2.21462 -0.306541,-1.78609 -0.30654,-1.78609 0.169814,-0.90511 0.169813,-0.90514 0.68493,-0.53878 0.684933,-0.53877 h 0.719513 0.719512 l 0.67855,0.67861 0.678554,0.67858 0.168917,1.4967 c 0.454628,4.02927 2.360439,6.94129 5.625452,8.5958 l 1.259247,0.63814 1.697232,0.30862 1.697334,0.3086 1.274693,-0.16828 c 0.701075,-0.0926 1.905711,-0.40434 2.676945,-0.69289 l 1.402252,-0.52464 1.176433,-0.89833 1.1765344,-0.8983 0.9585862,-1.44417 c 1.2312435,-1.855 1.2521712,-1.77276 -0.7481137,-2.94257 -0.9386569,-0.54894 -2.3328369,-1.55546 -3.0981909,-2.23671 l -1.39139,-1.23862 -1.84572,-0.13156 -1.845719,-0.13159 -1.072692,-0.54777 -1.07269,-0.54774 -0.933474,-1.03329 -0.933572,-1.03328 -0.46878,-1.22763 -0.468879,-1.22762 0.137125,-1.70814 0.137126,-1.70814 0.84189,-1.31195 0.84189,-1.31193 1.184505,-0.78458 1.184506,-0.7846 1.309173,-0.28077 1.309174,-0.28077 1.243601,0.27767 1.243503,0.27769 1.079368,0.63123 1.079368,0.63124 0.713932,0.93601 c 0.3926435,0.51483 0.8977974,1.37614 1.1225206,1.91403 l 0.408687,0.97804 -0.1014491,1.7245 -0.1013496,1.72452 -0.4525357,0.89744 c -0.2489394,0.4936 -0.4526347,1.08686 -0.4526347,1.31837 v 0.42091 l 0.856937,0.67242 c 2.1537545,1.69002 4.0716245,2.47276 6.7895287,2.77104 l 1.4501867,0.15915 1.68118818,-0.2759 1.68118822,-0.27589 1.694243,-0.79283 1.6942429,-0.79283 1.575952,-1.57591 1.5758522,-1.5759 0.8176727,-1.74734 0.8176729,-1.74733 0.282524,-1.96101 0.282522,-1.96099 -0.300062,-1.75183 -0.300063,-1.75185 -0.8735788,-1.72648 -0.87348,-1.72646 -1.3183427,-0.43881 c -0.7250934,-0.24158 -1.7702803,-0.70776 -2.3226707,-1.0362 l -1.0042284,-0.59717 -1.3687681,0.66466 c -0.7528971,0.36558 -1.8677432,0.74689 -2.47753518,0.84738 l -1.10866736,0.18269 -1.52801766,-0.31508 -1.5280175,-0.3151 -1.057046,-0.61675 c -2.1361153,-1.2463 -3.5655737,-3.282834 -4.0953423,-5.834458 l -0.2933858,-1.413384 0.2899974,-1.352344 0.2900972,-1.352337 0.7048634,-1.295052 0.7048631,-1.295064 0.9249027,-0.812112 c 0.5087413,-0.446667 1.5723643,-1.108538 2.3637286,-1.470826 l 1.438826,-0.658693 h 1.76071319 1.76071331 l 1.438826,0.658693 1.4388259,0.658703 0.9712424,0.852831 0.9713421,0.852834 0.7968453,1.625391 0.7968453,1.625391 0.06079,1.318352 c 0.033883,0.725105 -0.035876,1.933067 -0.154466,2.684372 l -0.2156544,1.36609 0.8387004,0.433676 c 0.4612058,0.238533 1.4500873,0.532107 2.1975036,0.652387 l 1.3589,0.21871 1.444806,-0.26317 c 1.708594,-0.311198 2.565233,-0.722186 3.842018,-1.843194 l 0.943338,-0.828268 0.708153,-1.342101 0.708152,-1.342091 V 80.93523 66.960616 L 18.488984,65.618527 17.780831,64.276436 16.788463,63.405178 C 16.242749,62.925984 15.268617,62.300555 14.623846,62.015332 L 13.451498,61.496753 H 11.550669 9.6497421 l -1.172347,0.518579 c -0.644771,0.285223 -1.6188037,0.910652 -2.1646169,1.389846 l -0.9922698,0.871258 -0.6422796,1.267409 c -0.353179,0.697068 -0.635802,1.419671 -0.6279292,1.605768 l 0.013952,0.338351 1.2375219,0.791016 1.2376216,0.791014 0.8233536,1.381356 0.8232542,1.381355 0.1666238,1.041848 0.166624,1.04186 -0.2839184,1.323622 -0.2838189,1.323617 -0.7114405,1.059247 -0.7113409,1.05925 -1.0487745,0.757909 c -0.5769051,0.41686 -1.4521793,0.89414 -1.9450755,1.060634 l -0.8963015,0.302702 -1.3449505,-0.003 -1.34495053,-0.003 -1.33299177,-0.620725 -1.332992,-0.620724 -0.9652629,-1.127672 -0.9652631,-1.127662 -0.4374876,-1.317316 -0.4375874,-1.317326 0.1425075,-1.380488 0.1425072,-1.380488 0.5266793,-1.022417 c 0.6140773,-1.191858 1.9047155,-2.4787 3.2017317,-3.192214 l 0.91483738,-0.503324 0.20140374,-0.969498 C -0.2824216,65.684361 0.15357123,64.565339 0.57581155,63.730874 L 1.3433569,62.213696 2.443753,60.966347 3.5441489,59.719 5.1005684,58.758312 6.6569878,57.797633 7.2579104,56.577928 7.858833,55.358355 v -2.109377 -2.10938 L 7.2425638,49.95308 C 6.9036354,49.300486 6.2650432,48.388816 5.8235693,47.927143 L 5.0208443,47.087735 3.7450547,46.538882 C 3.0432807,46.237025 1.9430841,45.917939 1.3002066,45.829815 l -1.16905868,-0.160238 -1.32970322,0.318998 -1.3298028,0.319007 -0.3007604,1.449149 -0.3008598,1.449152 -0.8800578,1.658776 -0.8799579,1.658775 0.2845164,1.120766 0.2844167,1.120766 -0.2927878,1.574338 -0.2927879,1.574329 -0.8392984,1.307946 -0.8392985,1.307939 -0.8274397,0.631129 c -0.4551265,0.347129 -1.3580053,0.871805 -2.0064637,1.165948 l -1.1790251,0.534823 -1.713876,0.006 -1.713873,0.006 -1.597279,-0.755666 -1.59678,-0.754942 -0.971342,-1.134827 -0.971342,-1.134817 -0.529471,-1.415087 -0.529469,-1.415098 V 55.0962 53.929463 l 0.560962,-1.526006 0.56096,-1.526003 1.374748,-1.349207 1.374747,-1.349196 1.382221,-0.459103 1.382222,-0.459092 1.757823,0.103253 1.757725,0.103253 0.8973976,0.452595 c 0.4935937,0.248929 1.0487745,0.452606 1.233735,0.452606 h 0.3363373 l 0.3088324,-1.487688 0.3088322,-1.487687 -0.2976709,-2.005966 -0.2977706,-2.005966 -0.6775576,-1.318363 -0.6775577,-1.318363 -1.1875947,-1.222972 -1.187495,-1.222983 -1.367873,-0.692068 -1.36777,-0.692058 -1.669031,-0.293992 -1.66903,-0.293994 -1.697532,0.281297 -1.697532,0.281298 -1.237222,0.595731 -1.237123,0.595731 -1.351529,1.273378 -1.351526,1.273368 -0.710843,1.583905 -0.710743,1.583905 -0.25193,1.638784 -0.251829,1.638794 0.07275,8.305681 0.07275,8.305658 2.900373,0.136697 2.900473,0.136697 0.527278,0.30078 c 0.290097,0.165428 2.080208,1.883698 3.978048,3.81838 l 3.45077,3.517601 0.171807,1.054695 0.171905,1.054683 V 84.23203 96.756445 l -0.165229,1.054684 -0.165228,1.054694 -3.721037,3.720467 -3.721036,3.72048 -0.889824,0.16867 -0.889923,0.1687 h -8.252965 -8.25287 l -0.09269,9.82177 -0.09268,9.82179 -0.608197,1.71387 c -0.334445,0.94263 -0.977421,2.36228 -1.428861,3.15477 l -0.820863,1.44092 -1.596181,1.59237 -1.596182,1.59237 -1.872927,0.98174 -1.872824,0.98172 -1.686669,0.39759 -1.68667,0.39757 -1.635047,0.004 c -0.899192,0.002 -2.263674,-0.12815 -3.032219,-0.28951 l -1.397269,-0.29342 -1.84562,-0.85159 -1.845709,-0.85159 -1.375246,-1.09515 -1.375145,-1.09515 -1.057844,-1.43192 c -0.58179,-0.78756 -1.313658,-1.9585 -1.626278,-2.60211 l -0.568534,-1.17019 -2.799324,-0.14513 -2.799224,-0.14513 -1.557417,-0.54974 c -0.856538,-0.30233 -1.776059,-0.54971 -2.043435,-0.54971 h -0.48602 v 1.10255 1.10253 l -4.218813,4.24687 -4.218716,4.24686 v 0.41917 c 0,0.23055 0.193232,0.87862 0.429416,1.44014 l 0.429415,1.02099 -0.01,1.76678 -0.01,1.7668 -0.654138,1.42891 -0.654239,1.42892 -0.938956,1.03936 -0.939055,1.03938 -1.395076,0.75931 -1.395178,0.75933 -2.151657,0.11294 -2.151563,0.11292 -1.442913,-0.66055 -1.442811,-0.66055 -1.109462,-1.00231 -1.10938,-1.00231 -0.66748,-1.31708 -0.6674,-1.31705 -0.2039,-1.20456 -0.20399,-1.20456 -0.0309,1.72817 -0.0309,1.72816 0.75559,1.17223 c 0.88684,1.37593 1.98055,2.44575 3.379325,3.30554 l 1.006719,0.61879 3.512561,0.008 3.512652,0.008 1.144741,-0.67088 z m -2.564529,-4.60114 0.859322,-0.52395 0.539435,-0.85934 0.539536,-0.85935 -0.09866,-1.52951 -0.09867,-1.52951 -0.975428,-0.97538 -0.975323,-0.97538 h -1.836948 -1.836853 l -0.975427,0.97538 -0.975329,0.97538 -0.09867,1.52951 -0.09866,1.52951 0.539435,0.85935 0.539534,0.85934 0.85933,0.52395 0.859331,0.52393 h 1.186498 1.186598 z m -2.937247,-0.28068 c -0.417756,-0.1215 -1.037216,-0.48178 -1.376643,-0.80061 l -0.617067,-0.57972 -0.291792,-0.88407 -0.291789,-0.8841 0.291789,-0.88405 0.291792,-0.8841 0.596936,-0.5608 c 0.328365,-0.30843 0.973936,-0.69221 1.434643,-0.85283 l 0.837704,-0.29203 0.922113,0.30431 0.922112,0.30433 0.645464,0.7671 0.645467,0.76711 0.175394,0.79842 0.175395,0.79842 -0.482631,0.97066 -0.482632,0.97065 -0.659216,0.45255 c -0.362549,0.2489 -0.955796,0.51039 -1.318344,0.58111 l -0.65912,0.12858 z m 120.007517,0.28068 0.85933,-0.52395 0.539434,-0.85934 0.539536,-0.85935 -0.09866,-1.52951 -0.09867,-1.52951 -0.975428,-0.97538 -0.975328,-0.97538 h -1.836949 -1.83685 l -0.975428,0.97538 -0.975329,0.97538 -0.09867,1.52951 -0.09866,1.52951 0.539436,0.85935 0.539534,0.85934 0.85933,0.52395 0.859329,0.52393 h 1.186498 1.186498 z m -2.937246,-0.28068 c -0.417756,-0.1215 -1.037314,-0.48178 -1.37664,-0.80061 l -0.617068,-0.57972 -0.291792,-0.88407 -0.291791,-0.8841 0.291791,-0.88405 0.291792,-0.8841 0.596936,-0.5608 c 0.328366,-0.30843 0.973933,-0.69221 1.434641,-0.85283 l 0.837704,-0.29203 0.922113,0.30431 0.922111,0.30433 0.645469,0.7671 0.645469,0.76711 0.175393,0.79842 0.175394,0.79842 -0.482631,0.97066 -0.482632,0.97065 -0.65922,0.45255 c -0.362548,0.2489 -0.955796,0.51039 -1.318344,0.58111 l -0.65912,0.12858 z m -123.745007,-6.98976 0.66509,-1.30032 1.01151,-0.96624 c 0.556384,-0.53143 1.488965,-1.21166 2.072448,-1.51162 l 1.060932,-0.54536 1.44401,-0.27424 1.443908,-0.27424 0.791065,0.15493 c 0.435097,0.0852 1.358001,0.34993 2.051006,0.58825 l 1.260044,0.43327 3.683867,-3.67676 3.683765,-3.67678 v -2.05071 -2.05071 l -1.157498,-1.42113 -1.157497,-1.42114 -0.814385,-1.67328 c -0.447852,-0.92031 -0.999445,-2.38522 -1.225664,-3.25532 l -0.41148,-1.58203 5.97e-4,-2.5049 4.98e-4,-2.50488 0.549504,-1.8457 c 0.302256,-1.01514 0.616769,-2.0519 0.698785,-2.30391 l 0.149283,-0.45824 -0.491401,-0.1655 c -0.270165,-0.091 -1.203243,-0.48965 -2.073335,-0.88581 l -1.58203,-0.72032 -1.356413,-1.22609 -1.356305,-1.22612 -0.817772,-1.274385 c -0.449747,-0.700905 -1.083157,-1.976715 -1.407436,-2.835127 l -0.589761,-1.560745 V 81.066984 67.224206 l 0.614875,-1.780146 0.614874,-1.780138 1.117935,-1.515759 c 0.614776,-0.83367 1.548242,-1.892418 2.074224,-2.352777 l 0.956395,-0.837018 1.702614,-0.812579 1.702617,-0.81258 1.181116,-0.161891 c 0.649556,-0.08899 1.314655,-0.244435 1.477892,-0.345327 l 0.296773,-0.183446 -0.234688,-1.696474 -0.234689,-1.696478 0.22861,-1.633322 0.228609,-1.633314 0.662311,-1.497644 0.662309,-1.497631 v -3.200707 -3.200706 l -3.683864,-3.676771 -3.683768,-3.676769 -1.260044,0.433281 c -0.693005,0.238307 -1.616009,0.503012 -2.051005,0.588237 l -0.791065,0.154943 -1.443909,-0.274241 -1.444009,-0.274241 -1.060932,-0.545376 c -0.583483,-0.299952 -1.516082,-0.98018 -2.072456,-1.511614 l -1.0115,-0.96624 -0.6652,-1.300335 -0.66509,-1.300325 -0.20391,-1.204556 -0.20399,-1.204556 -0.0309,1.658456 -0.0309,1.658459 0.50594,0.99179 c 0.27834,0.545484 1.01989,1.508447 1.64801,2.139913 l 1.141954,1.148122 1.450197,0.677189 1.450187,0.677188 2.061973,0.10154 2.061873,0.101548 1.197256,-0.457238 1.197262,-0.457231 3.398553,3.39098 3.398453,3.390978 v 3.015346 3.015338 l -0.724198,1.734552 -0.724296,1.734566 -7.98e-4,2.949334 -8.95e-4,2.949335 -0.922811,0.163185 c -1.450985,0.256575 -3.180606,0.950813 -4.615747,1.852724 l -1.319836,0.829432 -1.273892,1.416884 -1.273896,1.41689 -0.638492,1.259896 c -0.351087,0.692944 -0.815383,1.939416 -1.031736,2.769925 L -96.675,67.466837 V 81.074518 94.68221 l 0.420645,1.432129 c 0.231305,0.787668 0.77931,2.109718 1.217693,2.93788 l 0.797146,1.505751 1.538879,1.46793 1.538975,1.46794 1.945673,0.92395 1.945578,0.92396 -0.512332,1.50763 -0.512329,1.50765 -0.129153,2.6367 -0.129056,2.63672 0.416563,1.97754 0.41656,1.97755 1.0415,2.10937 1.0415,2.10937 0.941049,1.0966 0.940947,1.0966 v 1.80761 1.8076 l -3.398453,3.39097 -3.398553,3.39096 -1.197262,-0.45722 -1.197256,-0.45723 -2.061873,0.10153 -2.061973,0.10155 -1.450187,0.67719 -1.450197,0.67718 -1.141954,1.14812 c -0.62812,0.63146 -1.36967,1.59442 -1.64801,2.13991 l -0.50594,0.9918 0.0309,1.65844 0.0309,1.65845 0.20399,-1.20455 0.20391,-1.20456 z m 132.843753,-0.57529 -0.518209,-1.01576 -1.141953,-1.14812 -1.141951,-1.14812 -1.450187,-0.67718 -1.450187,-0.67719 -2.061972,-0.10155 -2.061971,-0.10153 -1.197262,0.45723 -1.197162,0.45722 -3.398549,-3.39096 -3.398552,-3.39097 v -1.80515 -1.80513 l 0.89102,-1.09907 c 1.310768,-1.61692 2.41545,-3.74077 3.108753,-5.97698 l 0.61308,-1.97754 v -3.03224 -3.03222 l -0.461405,-1.50634 c -0.253823,-0.82847 -0.531363,-1.6887 -0.616967,-1.91162 l -0.155463,-0.40528 0.357764,-2e-4 c 0.196819,-1.1e-4 1.110659,-0.35637 2.03088,-0.79168 l 1.673015,-0.79148 1.645114,-1.64729 1.645211,-1.64727 0.812193,-1.713872 0.812192,-1.713876 0.303451,-1.582031 0.303451,-1.582029 -0.09767,-13.579103 -0.09767,-13.5791 -0.447453,-1.296088 c -0.627433,-1.817229 -1.542371,-3.296027 -3.08135,-4.979906 l -1.324023,-1.448711 -2.173388,-1.060493 -2.173286,-1.060495 -1.054753,-0.164879 -1.054654,-0.164871 -0.01196,-2.822433 -0.01196,-2.822432 -0.625339,-1.582044 -0.625339,-1.58203 -0.09767,-3.295897 -0.09767,-3.295897 3.409015,-3.394784 3.408915,-3.394787 1.197261,0.457231 1.197261,0.457238 2.061971,-0.101548 2.061973,-0.10154 1.450186,-0.677188 1.450187,-0.677189 1.141953,-1.148122 c 0.628024,-0.631466 1.36966,-1.594429 1.647898,-2.139913 l 0.506051,-0.99179 -0.0309,-1.658459 -0.0309,-1.658456 -0.203994,1.204556 -0.203996,1.204556 -0.665101,1.300325 -0.6651,1.300335 -1.011504,0.96624 c -0.556377,0.531434 -1.488952,1.211662 -2.072436,1.511614 l -1.060932,0.545376 -1.444007,0.274241 -1.443908,0.274241 -0.791066,-0.154943 c -0.435103,-0.08521 -1.358013,-0.34993 -2.051017,-0.588237 l -1.260045,-0.433281 -3.683865,3.676769 -3.683765,3.676771 v 3.333486 3.333488 l 0.725094,1.547978 0.725092,1.547981 v 3.233153 3.233152 l 0.395533,0.105646 c 0.217449,0.05811 0.870092,0.184552 1.450187,0.280998 l 1.054654,0.175364 1.712281,0.836428 1.712379,0.836429 1.508587,1.507109 1.508683,1.50711 0.692806,1.367064 c 0.380983,0.75189 0.858332,1.912799 1.060832,2.579802 l 0.368029,1.212749 v 13.710933 13.710945 l -0.369623,1.217772 c -0.462601,1.524419 -1.186001,2.940695 -2.241651,4.389024 l -0.819467,1.12439 -1.578044,1.16168 -1.578044,1.16169 -1.33678,0.44402 -1.336778,0.44398 -0.11889,0.30979 -0.118889,0.30982 0.552291,1.57439 0.552192,1.57439 0.150279,2.55477 0.150281,2.55476 -0.323681,1.664 -0.323681,1.66397 -0.990476,2.10936 -0.990376,2.10938 -1.09641,1.37653 -1.09641,1.37651 v 2.05475 2.05474 l 3.683765,3.67678 3.683865,3.67676 1.260045,-0.43327 c 0.693004,-0.23832 1.615914,-0.50302 2.051009,-0.58825 l 0.791066,-0.15493 1.443908,0.27424 1.444007,0.27424 1.060932,0.54536 c 0.583484,0.29996 1.519847,0.98019 2.080908,1.51162 l 1.020073,0.96624 0.759475,1.58203 0.759574,1.58204 0.05082,0.92284 0.05082,0.92284 0.09367,-1.63445 0.09367,-1.63449 z m -81.672255,-5.08617 1.431053,-0.53544 1.176533,-0.89832 1.176432,-0.89831 0.970047,-1.46132 0.969947,-1.46132 0.381282,-1.25653 0.381281,-1.25651 v -9.42628 -9.42627 h -2.513411 -2.51331 l -0.848467,-0.36824 -0.848467,-0.36826 -3.348723,-3.38907 -3.348725,-3.389081 -0.276743,-0.742254 -0.276843,-0.742263 V 84.205404 70.76684 l 0.368328,-0.848468 0.368227,-0.848466 3.389082,-3.348705 3.389085,-3.348705 0.742234,-0.276782 0.742234,-0.276783 h 8.552235 8.552135 l 0.01,-9.162594 v -9.162609 l 0.368825,-1.740034 0.368825,-1.740026 0.877965,-1.81954 0.877964,-1.819541 1.980449,-1.995422 1.980553,-1.995421 1.711982,-0.83335 c 0.941545,-0.458346 2.419138,-1.013895 3.28345,-1.234563 l 1.571467,-0.401213 h 1.818214 1.818115 l 1.6201,0.416879 c 0.891119,0.229279 2.378277,0.777184 3.304874,1.217562 l 1.6847774,0.800691 1.9066089,1.880581 1.9065093,1.880588 0.7952507,1.582032 c 0.437388,0.870112 0.9448337,2.081973 1.1277016,2.693009 l 0.3324508,1.110991 2.40010271,-0.152802 2.40010289,-0.152812 1.5820309,0.450563 c 0.8700921,0.247814 1.9083032,0.512348 2.3071243,0.587857 L 6.40609,42.367055 V 40.575417 38.783771 L 10.624904,34.5369 14.84362,30.29003 v -0.419181 c 0,-0.230543 -0.193231,-0.878602 -0.429414,-1.440141 l -0.429417,-1.020971 0.01,-1.766793 0.01,-1.766792 0.654139,-1.428911 0.654138,-1.428911 0.939054,-1.039376 0.939054,-1.039368 1.395076,-0.759325 1.395176,-0.759324 2.151563,-0.112931 2.151661,-0.11294 1.442912,0.660558 1.442813,0.660556 1.109465,1.002315 1.109366,1.002316 0.667392,1.317057 0.667491,1.317057 0.203897,1.204556 0.203994,1.204556 0.03089,-1.728166 0.0309,-1.728157 -0.756783,-1.172227 C 29.568398,19.589968 28.317422,18.382343 26.94387,17.563454 l -0.954,-0.568754 h -3.481576 -3.481463 l -1.144745,0.670871 -1.144742,0.67087 -1.022166,1.108917 -1.022067,1.108917 -0.624839,1.290728 -0.62474,1.290728 -0.123773,1.928195 -0.123773,1.928194 0.444065,1.357638 0.444066,1.357627 -4.055579,4.125687 -4.05558,4.12569 -0.1776857,0.888818 c -0.097663,0.488849 -0.1777853,1.289274 -0.1777853,1.77871 0,0.489448 -0.044845,0.889894 -0.09866,0.889894 -0.053815,0 -0.6178641,-0.197368 -1.2524703,-0.438604 l -1.1537115,-0.438603 -2.80031945,-9.85e-4 -2.80031925,-9.85e-4 -0.4372883,-1.387145 -0.4371887,-1.387145 -1.030039,-1.534806 c -0.5664419,-0.844142 -1.6012646,-2.09133 -2.2994509,-2.771509 l -1.269611,-1.236695 -1.582031,-0.948162 -1.5820316,-0.948172 -1.60495,-0.495886 -1.604852,-0.495896 -2.086489,-0.17659 -2.086587,-0.176579 -1.977463,0.414706 -1.977563,0.414716 -1.977564,0.968512 -1.977563,0.968503 -2.000186,2.001471 -2.00028,2.001472 -0.843784,1.725824 c -0.464193,0.949199 -1.032729,2.373027 -1.263431,3.164062 l -0.419549,1.438239 -0.125168,9.55812 -0.125167,9.558097 h -8.862463 -8.862562 l -4.030468,4.030419 -4.030366,4.030406 v 14.866922 14.866925 l 3.625467,3.668124 3.625466,3.66814 0.712039,0.37398 0.712039,0.37399 h 2.64974 2.64984 v 8.25724 8.25725 l -0.287209,1.55392 -0.287307,1.55393 -0.608296,1.19715 -0.608297,1.19711 -0.97463,1.00094 c -1.288048,1.32279 -2.795835,2.25227 -4.45191,2.7445 l -1.351628,0.40173 -1.845719,-0.11919 -1.84572,-0.11921 -1.273398,-0.56455 c -0.700379,-0.3105 -1.756527,-0.94721 -2.346986,-1.41488 l -1.073679,-0.85033 -0.740639,-1.16797 -0.740739,-1.16796 1.573959,-0.95357 c 0.865696,-0.52446 2.168493,-1.46644 2.895181,-2.09329 l 1.321232,-1.1397 1.523733,-0.0826 1.523832,-0.0826 1.333789,-0.57377 1.333789,-0.57378 0.947425,-0.97247 0.947425,-0.97248 0.591555,-1.31836 0.591555,-1.31835 -0.01,-1.87165 -0.01,-1.87166 -0.6075,-1.25505 -0.607598,-1.25505 -0.924505,-0.92449 -0.924505,-0.92447 -1.345248,-0.62642 -1.34535,-0.62641 -1.600965,-0.003 -1.600966,-0.003 -1.297115,0.44198 -1.297217,0.442 -1.340056,1.34002 -1.339968,1.34005 -0.442072,1.29716 -0.441972,1.29718 0.01,1.60097 0.01,1.60099 0.52648,1.16033 0.52648,1.16035 -0.465989,0.51494 c -0.675565,0.74642 -2.390635,1.69788 -4.154538,2.30474 l -1.536289,0.5287 h -1.776658 -1.776661 l -1.686867,-0.52102 -1.686968,-0.52105 -1.239914,-0.82132 c -0.682043,-0.45172 -1.731814,-1.37412 -2.332836,-2.04976 l -1.092722,-1.22844 -0.784286,-1.65907 -0.784288,-1.65905 -0.200607,-1.63685 -0.200606,-1.63684 0.242262,-1.58203 0.242362,-1.58203 0.751702,-1.61837 0.751698,-1.61834 1.016385,-0.32253 c 0.559069,-0.17737 1.518451,-0.6096 2.131832,-0.96048 l 1.115344,-0.63796 1.125908,0.5826 1.125808,0.58263 2.241252,0.1099 2.241254,0.10989 1.503302,-0.56681 1.503404,-0.5668 1.274693,-1.14606 1.274694,-1.14607 0.751402,-1.485159 0.751402,-1.485167 0.131246,-1.833721 0.131147,-1.833723 -0.343513,-1.255749 -0.343412,-1.255738 -0.869096,-1.375068 -0.868997,-1.375055 -1.261638,-0.930664 -1.261638,-0.930665 -1.300305,-0.396907 -1.300304,-0.396918 h -1.656875 -1.656175 l -1.51267,0.565963 -1.512671,0.565954 -1.292033,1.208613 -1.292133,1.208593 -0.625537,1.234521 -0.625639,1.234515 -0.231299,1.475049 -0.231301,1.475051 0.221334,1.382571 0.221236,1.382571 -0.450542,0.334982 c -0.247743,0.184242 -0.928786,0.464006 -1.513365,0.621701 l -1.062827,0.286716 -1.287649,-0.152023 -1.287747,-0.152027 -1.085348,-0.558607 c -0.596938,-0.307236 -1.463046,-0.919838 -1.92475,-1.361343 l -0.839397,-0.802823 -0.61079,-1.349536 -0.610787,-1.349545 V 80.935628 67.752032 l 0.630021,-1.394211 0.630023,-1.394211 1.192677,-1.049871 1.192679,-1.04986 1.451383,-0.421912 1.451282,-0.421903 1.283764,0.152046 1.283761,0.152055 1.340662,0.729637 1.340565,0.729638 0.609793,0.799506 c 0.33544,0.43972 0.790268,1.147403 1.010905,1.572625 l 0.401113,0.773136 -0.713035,0.435505 c -0.392144,0.239532 -1.141154,0.910832 -1.664545,1.491773 l -0.951511,1.056259 -0.466887,1.222603 -0.466884,1.222605 0.120283,2.078673 0.120385,2.078675 0.681244,1.155736 c 0.912844,1.548476 1.911491,2.456059 3.496911,3.177905 l 1.318343,0.600263 1.84572,-0.003 1.845719,-0.003 1.382024,-0.614925 1.382122,-0.614923 0.9548,-1.056807 0.954698,-1.056807 0.5209,-1.17758 0.520899,-1.177589 v -1.783468 -1.783964 l -0.580991,-1.349345 -0.580493,-1.349356 -1.1572,-1.066612 c -0.6364,-0.586634 -1.450187,-1.200151 -1.808448,-1.363368 l -0.651249,-0.296755 -0.392245,-1.345319 -0.392145,-1.345319 -0.950614,-1.582032 c -1.221776,-2.03338 -2.265968,-3.111114 -4.138792,-4.27206 l -1.508485,-0.935028 -0.583683,-1.205783 -0.583681,-1.20578 0.01594,-1.649289 0.01594,-1.649289 0.584081,-1.133183 c 0.32129,-0.623257 0.899791,-1.474493 1.285655,-1.891641 l 0.701476,-0.758449 1.318344,-0.623244 1.318342,-0.623256 1.367174,-0.003 1.367073,-0.003 0.676364,0.257142 0.676362,0.257151 v 0.540451 c 0,0.792371 0.928689,3.301229 1.539577,4.159202 l 0.528873,0.742624 -0.260301,1.220401 -0.2603,1.220402 0.277441,1.500601 0.277341,1.500613 0.586274,1.173781 0.586173,1.173781 1.150622,1.060575 1.150523,1.060585 1.232838,0.567188 1.232937,0.56719 2.241142,0.003 2.241253,0.003 1.49254,-0.732948 1.492441,-0.732946 0.935068,-1.034961 c 0.514221,-0.569224 1.207126,-1.54457 1.539677,-2.167437 l 0.60471,-1.132484 -2e-4,-2.636715 -2.01e-4,-2.636727 -0.712435,-1.350878 -0.712437,-1.350893 -1.226162,-1.079289 -1.226061,-1.079288 -1.489053,-0.561939 -1.488952,-0.561936 -1.977564,0.113109 -1.977454,0.113119 -0.851058,0.443725 -0.850958,0.443716 -0.166524,-0.663646 c -0.09168,-0.365008 -0.120184,-1.523532 -0.06377,-2.574499 l 0.103143,-1.910834 0.729677,-1.582032 0.729778,-1.582032 1.210206,-1.232957 1.210316,-1.232949 1.61113,-0.744585 1.61113,-0.744587 2.373097,1.69e-4 2.372996,1.71e-4 1.521341,0.712745 1.52134,0.712746 1.247189,1.283843 1.247287,1.283842 0.603514,1.216754 0.603514,1.216763 0.267676,1.664419 c 0.14719,0.915413 0.325375,1.941486 0.39593,2.280138 l 0.128158,0.615739 0.687024,0.636699 0.687024,0.636709 h 1.259547 1.259645 l 0.811296,-0.811294 0.811295,-0.811307 v -1.721438 -1.721441 l -0.413974,-1.597573 c -0.227713,-0.878684 -0.791364,-2.378968 -1.252471,-3.333957 l -0.8385,-1.736946 -1.977464,-2.004053 -1.977565,-2.004051 -1.977562,-0.965922 -1.977564,-0.96593 -1.977463,-0.415783 -1.977564,-0.415773 -1.977565,0.170719 c -2.687906,0.23204 -4.044318,0.592802 -6.064434,1.612916 l -1.713866,0.86549 -1.364882,1.138343 c -2.113693,1.762906 -3.791292,4.19171 -4.691779,6.792869 l -0.324479,0.937269 -2.742023,0.0298 -2.742021,0.0298 -1.25247,0.405867 -1.252471,0.405867 v -0.864111 c 0,-0.475248 -0.07972,-1.264062 -0.177785,-1.752913 l -0.177685,-0.888816 -4.055577,-4.125688 -4.05558,-4.125689 0.444065,-1.357627 0.444064,-1.357637 -0.123771,-1.928195 -0.123772,-1.928194 -0.624741,-1.290728 -0.624841,-1.290729 -1.022069,-1.108917 -1.022165,-1.108916 -1.144743,-0.670871 -1.144743,-0.67087 h -3.482457 -3.481466 l -0.954401,0.568752 c -1.373561,0.81889 -2.624551,2.026516 -3.493141,3.372034 l -0.75679,1.172218 0.0309,1.728166 0.0309,1.728166 0.204,-1.204556 0.204,-1.204555 0.66739,-1.317059 0.66739,-1.317056 1.10946,-1.002315 1.109385,-1.002325 1.442911,-0.660547 1.442813,-0.660556 2.151664,0.112929 2.151557,0.11294 1.395176,0.759325 1.395178,0.759324 0.938952,1.039368 0.939058,1.039377 0.654139,1.428911 0.654139,1.428911 0.01,1.766792 0.01,1.766792 -0.429413,1.020971 c -0.236185,0.56154 -0.429417,1.209599 -0.429417,1.440142 v 0.419181 l 4.218816,4.24687 4.218713,4.246869 v 1.761711 1.76172 h 0.495088 c 0.272358,0 0.9546,-0.204882 1.516159,-0.455287 l 1.02097,-0.455287 3.127588,-0.007 3.127591,-0.007 0.589162,-1.627016 c 0.323981,-0.894857 0.972438,-2.224372 1.440919,-2.954478 l 0.851855,-1.32746 1.676704,-1.568489 1.676704,-1.568488 1.664933,-0.810169 c 0.915636,-0.445591 2.372,-0.990706 3.236314,-1.211372 l 1.571465,-0.401194 h 1.866747 1.866747 l 1.562399,0.406963 c 0.85933,0.223827 2.296063,0.768094 3.192663,1.2095 l 1.630165,0.802536 1.457959,1.299446 1.45796,1.29946 1.056249,1.581781 c 1.278879,1.91508 2.040049,3.874607 2.413656,6.213482 l 0.279832,1.751635 -0.295676,0.896013 -0.295778,0.896022 -0.76675,0.39651 -0.766748,0.396519 -0.636501,-0.159738 c -0.349991,-0.08789 -0.881851,-0.420936 -1.181715,-0.740181 l -0.545314,-0.580444 -0.27804,-1.960283 -0.277939,-1.960295 -0.639589,-1.396851 -0.63949,-1.396851 -1.39667,-1.379462 -1.396572,-1.379461 -1.25297,-0.611995 -1.252867,-0.611994 -1.681787,-0.278676 -1.681787,-0.278686 -1.635546,0.288083 -1.635445,0.288085 -1.36239,0.634077 -1.362492,0.634068 -1.261029,1.278092 -1.260942,1.278082 -0.682041,1.394062 -0.682042,1.39406 -0.273654,1.910625 -0.273654,1.910626 0.180875,1.186528 c 0.09966,0.652585 0.285412,1.354079 0.413072,1.558872 l 0.231998,0.372352 1.357408,-0.583932 1.357396,-0.583929 1.531607,-0.007 1.531705,-0.007 1.036814,0.310657 1.036915,0.310656 1.253368,0.909575 1.253368,0.909567 0.765352,1.206898 0.765454,1.206898 0.303253,1.46062 0.303151,1.460631 -0.290993,1.449151 -0.290996,1.449161 -0.828335,1.290825 -0.828336,1.290827 -0.82744,0.63113 c -0.455127,0.34713 -1.358105,0.871806 -2.006563,1.165949 l -1.179025,0.534822 -1.713775,0.006 -1.713875,0.006 -1.597369,-0.755668 -1.597278,-0.755667 -0.97144,-1.134828 -0.971343,-1.134816 -0.556477,-1.471115 -0.556475,-1.471115 0.161143,-1.997113 0.161242,-1.997119 -0.788275,-1.430624 -0.788275,-1.430624 -0.300662,-1.504052 -0.300658,-1.504049 -1.449692,-0.300952 -1.449788,-0.300969 -1.220978,0.174947 -1.22098,0.174944 -1.054655,0.53247 c -1.380427,0.696931 -2.676844,1.944229 -3.383004,3.255007 l -0.568336,1.054695 v 2.373047 2.373047 l 0.571426,1.070988 0.571424,1.070976 1.715471,1.109414 1.715468,1.109406 1.108171,1.379172 c 1.224965,1.524401 2.260584,3.539525 2.521182,4.905454 l 0.169714,0.889544 0.821462,0.428808 c 0.451837,0.235854 1.380128,0.986929 2.062968,1.66906 l 1.241509,1.240244 0.436789,1.502435 0.436791,1.502437 -0.157755,1.151022 c -0.1735,1.265772 -0.683039,2.405763 -1.656873,3.706856 l -0.636997,0.851057 -1.177529,0.690054 -1.177432,0.690046 -1.516258,0.136169 -1.516159,0.136158 -1.109566,-0.300171 -1.109461,-0.300162 -1.104784,-0.849764 -1.10468,-0.849752 -0.750605,-1.336589 -0.750605,-1.33659 -0.163635,-1.194172 -0.163634,-1.194162 0.436691,-1.502437 0.436789,-1.502435 1.257553,-1.240244 c 0.691708,-0.682131 1.540475,-1.4291 1.886179,-1.659912 l 0.628629,-0.41967 -0.726589,-1.485166 -0.726687,-1.485155 -1.075682,-0.920778 -1.075782,-0.920778 -1.347142,-0.448319 -1.347141,-0.448311 -1.630662,0.02401 -1.630762,0.02391 -1.269712,0.559935 -1.269713,0.559935 -1.123116,1.099448 -1.123119,1.099451 -0.524786,1.40271 -0.524785,1.402702 v 13.295365 13.29565 l 0.524785,1.402711 0.524786,1.402711 1.123119,1.09945 1.123116,1.099453 1.281971,0.565338 1.281969,0.565319 1.750248,0.003 1.75035,0.003 1.31834,-0.502231 1.318343,-0.502225 -0.08072,-0.778809 c -0.04385,-0.428329 -0.09666,-1.668681 -0.117195,-2.756332 l -0.03687,-1.977534 0.555083,-1.232847 0.555082,-1.23284 1.060631,-1.150593 1.060534,-1.150592 1.166469,-0.582557 c 0.641581,-0.320401 1.776657,-0.698276 2.522481,-0.839718 l 1.356009,-0.257171 1.313862,0.249161 c 3.511361,0.665929 6.169572,3.321379 6.800689,6.793696 l 0.247345,1.361084 -0.210173,1.329783 -0.210174,1.329783 -0.726686,1.335035 -0.72659,1.335047 -0.925002,0.81213 c -0.508642,0.44666 -1.582928,1.1156 -2.387147,1.48651 l -1.462244,0.6744 -1.855091,0.004 -1.855086,0.004 -1.493039,-0.7305 -1.493139,-0.73049 -1.529711,0.78853 c -0.841392,0.43371 -1.857379,0.8679 -2.257795,0.96489 l -0.727984,0.17637 -0.557169,0.78241 c -0.306441,0.43035 -0.83651,1.57401 -1.178028,2.54149 l -0.620955,1.75905 -0.01,1.93949 -0.01,1.93947 0.417158,1.6201 0.417258,1.62009 0.76376,1.34081 0.763857,1.34081 1.453474,1.37463 1.453477,1.37462 1.682883,0.78751 1.682881,0.78753 1.681189,0.27364 1.681186,0.27363 1.450189,-0.16564 c 2.660404,-0.3039 4.976895,-1.27093 6.85869,-2.86319 l 0.885239,-0.74911 -0.342117,-0.83292 c -0.188249,-0.45811 -0.50904,-1.42622 -0.712935,-2.15131 l -0.370718,-1.31835 0.267775,-1.26115 c 0.341319,-1.60811 1.07299,-3.02875 2.025188,-3.93224 l 0.74921,-0.71097 1.318341,-0.58319 1.318346,-0.5832 1.480879,0.0139 1.48078,0.0138 1.155905,0.52211 1.155904,0.52211 0.896898,0.89013 0.896901,0.89012 0.616667,1.31834 0.616569,1.31838 v 1.20546 1.20548 l -0.43958,1.29012 -0.43958,1.29013 -1.217592,1.21764 -1.21769,1.21763 -1.29014,0.4396 -1.29014,0.43959 h -1.427166 -1.427266 l -1.31017,1.28297 -1.310171,1.28295 -1.69802,0.993 -1.697931,0.99301 v 0.31555 c 0,1.7955 3.877785,5.04285 6.987335,5.85132 l 1.318342,0.34276 1.773172,-0.12673 1.773168,-0.12674 1.431054,-0.53544 z m -3.763391,-15.43916 0.48941,-0.44299 0.161141,-0.85888 0.161144,-0.8589 -0.330857,-0.62102 c -0.18197,-0.34157 -0.519105,-0.76558 -0.74921,-0.94223 l -0.418353,-0.3212 -1.000741,-0.008 -1.00084,-0.008 -0.647162,0.6472 -0.647163,0.6472 0.01,1.00074 0.01,1.00076 0.321191,0.41464 c 0.176688,0.22807 0.558468,0.5567 0.848565,0.73033 l 0.527278,0.31567 0.889724,-0.12579 0.889625,-0.12579 0.489407,-0.44297 z m -2.913428,-0.80752 -0.551094,-0.70063 0.164731,-0.55183 c 0.208977,-0.70002 0.619159,-1.11015 1.31914,-1.31915 l 0.551891,-0.16475 0.700579,0.55109 0.700578,0.55109 v 0.64004 0.64006 l -0.527279,0.52733 -0.527375,0.52736 h -0.640089 -0.639986 z m 43.689062,0.55435 0.59325,-0.67417 v -0.92014 -0.92012 l -0.647163,-0.6472 -0.647263,-0.64719 h -1.079169 -1.079268 l -0.646665,0.69767 -0.646565,0.69769 v 0.82568 0.82568 l 0.423736,0.60494 c 0.232994,0.33272 0.677956,0.71204 0.988782,0.84295 l 0.565046,0.23801 0.790965,-0.12482 0.791066,-0.12482 z m -2.925486,-0.33594 -0.436292,-0.48218 v -0.63843 c 0.01,-0.79027 0.223628,-1.13029 0.984697,-1.53106 l 0.593248,-0.31243 0.59325,0.31243 c 0.770636,0.4058 0.979813,0.74081 0.984794,1.57689 v 0.68422 l -0.482231,0.43637 -0.482233,0.43639 h -0.663407 -0.663507 l -0.436392,-0.4822 z m -11.453206,-0.6695 c 1.101891,-0.68813 1.478488,-2.2998 0.874974,-3.7442 l -0.385964,-0.92386 -0.946229,-0.39537 -0.946225,-0.39536 -0.910452,0.17082 -0.910452,0.17079 -0.657727,0.78161 -0.657727,0.78163 v 1.10762 1.10763 l 0.429417,0.61296 0.429316,0.61296 0.823053,0.3614 0.823156,0.36141 0.782395,-0.15822 c 0.430212,-0.0869 0.993859,-0.29033 1.252465,-0.45182 z m -3.127583,-0.79168 -0.726588,-0.62501 v -0.9912 -0.99117 l 0.726588,-0.62501 0.726589,-0.62503 h 0.740339 0.74044 l 0.695093,0.69515 0.695096,0.69512 v 0.86345 0.86346 l -0.811194,0.68264 -0.81129,0.68261 h -0.624243 -0.624241 z m 10.645892,-16.310701 2.443852,-2.433754 V 84.241202 71.452859 l -2.433687,-2.443913 -2.433786,-2.443922 H -36.030038 -48.81833 l -2.443951,2.433758 -2.443852,2.433757 v 12.788343 12.788333 l 2.433687,2.443924 2.433786,2.443921 h 12.788292 12.788385 z M -50.745069,98.925793 -53.178856,96.48188 V 84.220882 71.959885 l 2.443951,-2.433757 2.443953,-2.433756 h 12.260914 12.261008 l 2.433786,2.443909 2.433787,2.443924 v 12.260997 12.260997 l -2.443951,2.433756 -2.443953,2.433755 h -12.261007 -12.260915 z m 5.36565,-3.85406 0.812094,-0.495229 0.440376,-0.92791 c 0.242163,-0.510347 0.440279,-1.058293 0.440279,-1.217651 v -0.28974 h 3.041584 3.041686 l 0.483728,1.120596 0.483827,1.120607 0.589163,0.527347 0.589263,0.527347 h 1.312263 1.312365 l 0.769339,-0.861093 0.769341,-0.861093 -4.98e-4,-0.984616 -4.98e-4,-0.984608 -3.298498,-8.701173 -3.298596,-8.701171 -0.792062,-0.725102 -0.792063,-0.725094 h -1.046381 -1.046383 l -0.801331,0.725094 -0.801328,0.725102 -3.289728,8.66703 -3.289628,8.66703 v 0.987358 0.987346 l 0.563751,0.716713 c 0.625537,0.795201 1.343954,1.158725 2.336621,1.182412 l 0.659222,0.01574 0.812092,-0.49523 z m -2.959967,-0.919233 -0.727086,-0.625427 0.03288,-0.890691 0.03289,-0.890692 3.198344,-8.437503 3.198442,-8.437493 0.659918,-0.593269 0.660018,-0.593261 h 0.661813 c 1.703212,0 1.582229,-0.222379 5.515931,10.139471 l 3.098589,8.161915 -0.02291,0.802926 -0.02292,0.802916 -0.689715,0.593267 -0.689616,0.59326 h -0.71772 -0.717619 l -0.548704,-0.38436 -0.548802,-0.384354 -0.571923,-1.329514 -0.571922,-1.329504 h -3.423765 -3.423663 l -0.631518,1.427864 -0.631417,1.427866 -0.534452,0.286 c -0.293885,0.157307 -0.832223,0.286002 -1.196165,0.286002 h -0.661812 z m 9.13512,-7.842609 c 0,-0.30683 -0.205789,-1.137398 -0.457318,-1.845709 l -0.45742,-1.287829 h -0.412872 -0.412873 l -0.578899,1.608888 -0.578898,1.608878 0.146393,0.236823 0.146294,0.23682 h 1.302797 1.302796 z m -1.827084,-0.562736 c 0.01,-0.181272 0.11022,-0.564249 0.222232,-0.851057 l 0.203697,-0.521457 0.305144,0.570049 c 0.167721,0.313526 0.305047,0.696492 0.305047,0.851047 v 0.28101 h -0.527379 -0.527276 z m 17.977048,8.779213 0.725094,-0.811454 v -9.483868 -9.483874 l -0.76944,-0.861095 -0.76934,-0.861093 h -1.361592 -1.361693 l -0.769342,0.861093 -0.769439,0.861095 v 9.452473 9.452465 l 0.563851,0.716713 c 0.310027,0.394187 0.814285,0.824021 1.120527,0.955187 l 0.556874,0.238487 1.054654,-0.112342 1.054754,-0.112332 z m -3.676689,-0.3848 -0.739842,-0.63635 v -9.274172 -9.274181 l 0.739842,-0.636349 0.739743,-0.636352 h 0.661812 c 0.364042,0 0.901384,0.128198 1.194171,0.284897 l 0.532361,0.284895 0.373109,0.893163 0.373211,0.893162 v 8.190765 8.190767 l -0.373211,0.893152 -0.373109,0.893163 -0.532361,0.284896 c -0.292787,0.156688 -0.830129,0.284895 -1.194171,0.284895 h -0.661812 z m -42.61048,4.865771 0.844082,-0.514692 0.408288,-0.789591 0.408388,-0.789578 v -1.133693 -1.133701 l -0.496982,-0.753764 c -0.273355,-0.414567 -0.836109,-0.977382 -1.250676,-1.250698 l -0.753794,-0.49695 -1.133683,-0.002 -1.13368,-0.002 -0.757184,0.391525 -0.757082,0.391527 -0.509738,0.729079 c -0.280332,0.400994 -0.589662,1.059817 -0.687424,1.46405 l -0.177786,0.734981 0.274852,1.020719 0.27485,1.020723 0.928289,0.815103 0.928391,0.8151 1.375046,-9.86e-4 1.375149,-9.87e-4 0.844082,-0.514692 z m -3.533985,-0.527337 -0.844182,-0.514702 -0.408289,-0.78958 c -0.224523,-0.434268 -0.40789,-1.062448 -0.407293,-1.395935 l 9.86e-4,-0.606364 0.53206,-0.872792 0.53216,-0.872804 0.944435,-0.394596 0.944337,-0.394585 0.764558,0.167919 0.764557,0.167929 0.754093,0.754034 0.753994,0.754034 0.167022,0.834963 0.167023,0.834984 -0.422639,0.890582 -0.422638,0.890581 -0.859927,0.531504 -0.860028,0.531493 -0.628031,-9.86e-4 -0.628128,-9.86e-4 -0.844082,-0.514701 z M 1.4304565,98.975878 2.2001955,98.427752 2.5917419,97.670609 2.9832884,96.913478 2.9822956,95.779785 2.9813031,94.646084 2.4665825,93.801952 1.9518618,92.95782 1.1622914,92.549511 0.37282057,92.141203 H -0.70805077 -1.7889143 l -0.7570826,0.391528 -0.7571824,0.391525 -0.5481053,0.769779 -0.5481052,0.769779 v 1.475411 1.475409 l 1.0546541,1.054694 1.054654,1.054681 h 1.4753996 1.47539951 z m -3.64191,-0.495876 -0.8440819,-0.514702 -0.4083884,-0.78958 c -0.2245237,-0.434268 -0.4082885,-1.048436 -0.4082885,-1.364822 v -0.575232 l 0.5314628,-0.859977 0.5315625,-0.859987 0.9310812,-0.441813 0.9309815,-0.44181 0.77950522,0.171205 0.7795053,0.171208 0.76904148,0.769022 0.7690415,0.769023 0.1712081,0.779504 0.171208,0.779517 -0.4417726,0.93105 -0.4418726,0.931062 -0.85992726,0.531504 -0.86002686,0.531493 -0.62802892,-9.86e-4 -0.62802886,-9.86e-4 -0.8441817,-0.514701 z m -70.3516835,-22.421105 0.689118,-0.261996 0.35876,-0.858681 0.358859,-0.858681 -0.139816,-0.730964 -0.139717,-0.730962 -0.66281,-0.521409 -0.662907,-0.521419 h -0.851756 -0.851755 l -0.662808,0.521419 -0.662909,0.521409 -0.139716,0.730962 -0.139718,0.730964 0.359856,0.861162 0.359757,0.861174 0.605008,0.242789 c 0.809103,0.324709 1.356609,0.328276 2.182554,0.01426 z m -2.236766,-1.05637 -0.527378,-0.527346 v -0.498138 -0.498128 l 0.47735,-0.589514 0.477449,-0.589511 h 0.759076 0.759177 l 0.477349,0.589511 0.47735,0.589514 v 0.498128 0.498138 l -0.527279,0.527346 -0.527375,0.527348 h -0.659222 -0.659121 z M 2.7007651,75.935135 3.4466864,75.549378 3.6105201,75.122554 C 3.7002091,74.887794 3.774254,74.28475 3.774254,73.782444 V 72.869182 L 3.1270913,72.22199 2.4799285,71.574785 l -1.0008401,0.008 -1.00074059,0.008 -0.41835375,0.321211 c -0.23010454,0.176658 -0.56723902,0.600663 -0.74920994,0.942222 l -0.33085632,0.621023 0.1657272,0.883665 0.1658267,0.883665 0.68493219,0.538769 0.68493221,0.538766 h 0.636699 c 0.3501893,0 0.9724382,-0.173589 1.38272,-0.385746 z M 0.22970737,74.943861 -0.18077361,74.357846 v -0.559644 -0.559646 l 0.46140496,-0.3963 C 0.5344539,72.624289 0.92002106,72.384189 1.1375689,72.30869 l 0.3955327,-0.137265 0.597036,0.221953 0.5971357,0.221942 0.2599016,0.683517 0.2598019,0.683526 -0.3031521,0.576 C 2.5448042,75.316432 2.2079685,75.520955 1.3502339,75.52584 l -0.71014518,0.004 z M -58.214648,58.009161 c 0.406296,-0.210112 0.934371,-0.680547 1.173444,-1.045407 l 0.434697,-0.663374 v -1.292084 -1.292073 l -0.518408,-0.659053 -0.518408,-0.659042 -0.805016,-0.333418 -0.804917,-0.333406 -1.075583,0.144269 -1.07568,0.144273 -0.637685,0.59909 -0.637696,0.599077 -0.27764,0.938647 -0.277641,0.938634 0.347996,1.045047 0.347998,1.045058 0.895892,0.602896 0.896003,0.602906 h 0.8969 0.896999 z m -2.940235,-0.693771 c -0.596827,-0.3476 -1.25246,-1.622371 -1.25246,-2.435113 v -0.636708 l 0.525783,-0.6684 0.525771,-0.668389 0.734661,-0.256114 0.734661,-0.256116 0.901882,0.295688 0.901783,0.295688 0.510236,0.876699 0.510336,0.8767 -0.301359,1.005814 -0.301359,1.005822 -0.648058,0.424612 -0.64806,0.424614 -0.866206,-0.008 c -0.476353,-0.004 -1.073888,-0.128965 -1.327611,-0.276783 z m 50.401159,0.693771 c 0.406296,-0.210112 0.9343705,-0.680547 1.1734445,-1.045407 l 0.4345976,-0.663374 v -1.22102 -1.22101 l -0.5205007,-0.730983 -0.5205004,-0.730974 -0.802826,-0.332549 -0.802824,-0.33254 -1.075582,0.144269 -1.075681,0.144273 -0.637696,0.59909 -0.637696,0.599077 -0.27764,0.938647 -0.277639,0.938634 0.347997,1.045047 0.347996,1.045058 0.895903,0.602896 0.896002,0.602906 h 0.896899 0.897 z m -3.42775,-1.227885 -0.764957,-0.818899 v -0.915246 -0.915245 l 0.770736,-0.770737 0.770737,-0.770736 h 0.960479 0.96048 l 0.53236,0.284897 0.53226,0.284894 0.386165,0.924243 0.3861654,0.924236 -0.2898979,0.878645 -0.2899985,0.878641 -0.636598,0.417109 -0.636601,0.417109 h -0.958188 -0.958187 z m -26.338345,0.643496 0.743332,-0.439092 0.286111,-0.628009 c 0.375102,-0.823244 0.363244,-1.991117 -0.02889,-2.851771 l -0.315012,-0.691362 -0.726587,-0.375732 -0.726588,-0.37573 h -0.962274 -0.962374 l -0.896401,0.896481 -0.8965,0.89648 v 1.107423 1.107423 l 0.8965,0.896491 0.896401,0.896481 h 0.974532 0.974432 z m -3.147717,-1.046673 -0.54641,-0.694737 V 54.84203 54.000699 l 0.628028,-0.590062 0.628128,-0.590051 0.841292,-0.02391 0.841391,-0.02392 0.683935,0.683867 0.683837,0.683875 v 0.809143 0.809144 l -0.617267,0.657029 -0.617266,0.657037 h -0.989579 -0.989579 l -0.54651,-0.694739 z m -48.077687,-27.852151 0.957588,-0.95757 0.09866,-1.529512 0.09866,-1.529514 -0.539435,-0.859349 -0.539535,-0.859339 -0.859324,-0.523948 -0.859329,-0.52395 h -1.186499 -1.186598 l -0.859331,0.52395 -0.859328,0.523948 -0.539436,0.859339 -0.539535,0.859349 0.09767,1.516379 0.09767,1.516378 0.774224,0.818153 c 0.425728,0.449974 1.011404,0.923347 1.301502,1.051943 l 0.527279,0.233802 1.529512,-0.08122 1.529513,-0.08122 z m -3.884567,0.311414 c -0.362547,-0.150021 -0.922711,-0.520402 -1.244799,-0.823055 l -0.585775,-0.550277 -0.291792,-0.884074 -0.291789,-0.884085 0.291789,-0.884073 0.291792,-0.884084 0.609293,-0.572411 c 0.335142,-0.314823 0.982007,-0.679293 1.437533,-0.809932 l 0.828137,-0.237518 0.910951,0.251531 0.910951,0.25153 0.653836,0.776984 0.653738,0.776984 0.175394,0.798431 0.175395,0.79843 -0.482631,0.970655 -0.482632,0.970654 -0.659216,0.475396 c -0.362549,0.261467 -1.015092,0.533068 -1.450187,0.603544 l -0.790967,0.128147 z m 120.954842,-0.311414 0.95759,-0.95757 0.09867,-1.529512 0.09866,-1.529514 -0.539439,-0.859349 -0.539536,-0.859339 -0.859329,-0.523948 -0.85933,-0.52395 h -1.186499 -1.186598 l -0.859328,0.52395 -0.85933,0.523948 -0.539434,0.859339 -0.539536,0.859349 0.09767,1.516379 0.09767,1.516378 0.774223,0.818153 c 0.425729,0.449974 1.011405,0.923347 1.301501,1.051943 l 0.527377,0.233802 1.529514,-0.08122 1.529512,-0.08122 z M 21.44038,28.837362 C 21.077935,28.687341 20.517772,28.31696 20.195683,28.014307 l -0.585774,-0.550277 -0.291792,-0.884074 -0.291791,-0.884085 0.291791,-0.884073 0.291792,-0.884084 0.609294,-0.572411 c 0.335141,-0.314823 0.982005,-0.679293 1.437431,-0.809932 l 0.828237,-0.237518 0.91095,0.251531 0.910951,0.25153 0.653839,0.776984 0.653741,0.776984 0.175393,0.798431 0.175394,0.79843 -0.482631,0.970655 -0.482632,0.970654 -0.65922,0.475396 c -0.362548,0.261467 -1.015091,0.533068 -1.450187,0.603544 l -0.790967,0.128147 z"
       style="fill:#939393;fill-opacity:1;stroke-width:0.26367" />
  </g>
</svg>
