<?xml version="1.0" encoding="UTF-8" standalone="no"?>
<svg
   xmlns:dc="http://purl.org/dc/elements/1.1/"
   xmlns:cc="http://creativecommons.org/ns#"
   xmlns:rdf="http://www.w3.org/1999/02/22-rdf-syntax-ns#"
   xmlns:svg="http://www.w3.org/2000/svg"
   xmlns="http://www.w3.org/2000/svg"
   xmlns:sodipodi="http://sodipodi.sourceforge.net/DTD/sodipodi-0.dtd"
   xmlns:inkscape="http://www.inkscape.org/namespaces/inkscape"
   height="2491.613"
   width="2183"
   enable-background="new 0 0 2249 2249"
   viewBox="0 0 2183 2491.613"
   version="1.1"
   id="svg26"
   sodipodi:docname="NodeM.svg"
   inkscape:version="1.0 (4035a4fb49, 2020-05-01)">
  <metadata
     id="metadata32">
    <rdf:RDF>
      <cc:Work
         rdf:about="">
        <dc:format>image/svg+xml</dc:format>
        <dc:type
           rdf:resource="http://purl.org/dc/dcmitype/StillImage" />
      </cc:Work>
    </rdf:RDF>
  </metadata>
  <defs
     id="defs30" />
  <sodipodi:namedview
     inkscape:document-rotation="0"
     pagecolor="#ffffff"
     bordercolor="#666666"
     borderopacity="1"
     objecttolerance="10"
     gridtolerance="10"
     guidetolerance="10"
     inkscape:pageopacity="0"
     inkscape:pageshadow="2"
     inkscape:window-width="1920"
     inkscape:window-height="1055"
     id="namedview28"
     showgrid="false"
     inkscape:zoom="0.13975499"
     inkscape:cx="1460.015"
     inkscape:cy="1991.8443"
     inkscape:window-x="-8"
     inkscape:window-y="-8"
     inkscape:window-maximized="1"
     inkscape:current-layer="svg26" />
  <path
     style="stroke-width:1.037"
     d="M 2183,1245.8065 C 2183,1933.7975 1694.2759,2491.613 1091.5,2491.613 535.31547,2491.613 76.293375,2016.8882 8.6388173,1403.0141 2.9119609,1350.8331 0,1298.3198 0,1245.8065 0,1148.3134 9.8036016,1053.3684 28.343086,962.30105 140.84184,410.91119 574.14162,0 1091.5,0 c 516.0965,0 948.5227,408.80622 1062.1863,958.2019 15.1422,72.8982 24.3634,147.2367 27.7607,222.1291 1.0677,21.8252 1.553,43.6503 1.553,65.4755 z"
     fill="#f2f2f2"
     id="path2" />
  <path
     d="M 1036.9493,1345.8477 V 1021.9048 L 791.17977,860.0441 545.41027,1021.9048 v 323.9429 l 245.7695,161.9715 z"
     fill="#3b8739"
     id="path4"
     style="fill:#939393;fill-opacity:1;stroke-width:1.037" />
  <path
     d="m 2004.788,1296.658 160.1578,105.5806 -160.1578,105.5806 -245.7695,-161.9715 v -323.8321 l 245.7695,-161.9715 148.8983,98.1578 c 15.1422,72.8982 24.3634,147.2367 27.7607,222.1291 l -91.0474,60.0469 v -112.7818 l -85.6116,-56.3908 -85.6117,56.3908 v 112.7818 z"
     fill="#333"
     id="path6"
     style="fill:#595959;fill-opacity:1;stroke-width:1.037" />
  <path
     d="m 2052.5442,1215.3399 v -62.9273 l -47.6591,-31.4637 -47.7562,31.4637 v 62.9273 l 47.7562,31.4637 z"
     fill="#66a060"
     id="path8"
     style="fill:#939393;fill-opacity:1;stroke-width:1.037" />
  <path
     d="m 429.3201,1022.0156 v 427.0861 L 265.3767,1342.4133 v -219.0271 l -81.8261,-53.9536 -81.8261,53.9536 v 218.9163 L 8.6388173,1402.9033 C 2.9119609,1350.8331 0,1298.3198 0,1245.8065 0,1148.3134 9.8036016,1053.3684 28.343086,962.30105 L 183.5506,860.0441 Z"
     fill="#333"
     id="path10"
     style="fill:#595959;fill-opacity:1;stroke-width:1.037" />
  <path
     d="M 791.0827,859.93331 1036.8522,1345.7369 791.0827,1507.7084 545.41027,1021.9048 Z"
     fill="#6da75d"
     id="path12"
     style="fill:#dcdcdc;fill-opacity:0.691176;stroke-width:1.037" />
  <path
     d="m 545.41027,1345.8477 84.3498,-157.0968 -84.3498,-166.8461 z"
     fill="#55a344"
     id="path14"
     style="fill:#74787d;fill-opacity:1;stroke-width:1.037" />
  <path
     d="M 954.92904,1183.8762 1036.8522,1021.9048 791.17977,860.0441 Z"
     fill="#639d57"
     id="path16"
     style="fill:#74787d;fill-opacity:1;stroke-width:1.037" />
  <path
     d="m 1477.626,484.58494 v 429.74508 l -82.4085,-54.28592 -245.7695,161.9715 v 323.9429 l 245.7695,161.9714 245.7695,-161.9714 V 584.40456 Z m -0.4853,753.24486 -81.9232,53.9536 -81.9231,-53.9536 v -107.9071 l 81.9231,-53.9536 81.9232,53.9536 z"
     fill="#333"
     id="path18"
     style="fill:#585858;fill-opacity:1;stroke-width:1.037" />
  <g
     fill="#66a060"
     id="g24"
     transform="matrix(0.97065362,0,0,1.1078759,0,3.9636366)"
     style="fill:#595959;fill-opacity:1">
    <path
       d="m 1239.4,1575.7 c 0,0 -5,-42.7 -50.7,-42.7 -45.7,0 -77,6 -77,31.3 0,25.3 88.9,25.3 122.7,35.3 33.8,9.9 63.6,35.8 48.7,81.5 -14.9,45.7 -60.6,50.7 -131.2,50.7 -70.6,0 -86.5,-58.6 -86.5,-81.5 h 39.8 c 0,0 -5,35.8 41.7,41.7 46.7,5.9 91.4,9.3 97.4,-26.8 8,-47.7 -151.1,-23.9 -165,-70.6 -11.8,-39.5 -5,-91.4 74.5,-99.4 79.5,-8 123.2,27.2 123.2,79.5 z"
       id="path20"
       style="fill:#595959;fill-opacity:1" />
    <path
       d="m 855.3,1762 87.9,50.7 c 44.2,25.5 99.4,-6.4 99.4,-57.4 v -252.6 h -35.8 v 242.6 c 0,27.8 -30.1,45.3 -54.3,31.3 l -61.3,-35.4 v -258.9 l 224.2,-129.4 224.2,129.4 v 258.9 l -224.2,129.4 -64.6,-37.3 -42.2,17 106.8,61.6 260,-150.1 v -300.2 l -260,-150.1 -260,150.1 z"
       id="path22"
       style="fill:#595959;fill-opacity:1" />
  </g>
</svg>
